HIERARCHY
ROOT Hips
{
	OFFSET 0.00000 0.00000 0.00000
	CHANNELS 6 Xposition Yposition Zposition Zrotation Yrotation Xrotation 
	JOINT LHipJoint
	{
		OFFSET 0 0 0
		CHANNELS 3 Zrotation Yrotation Xrotation
		JOINT LeftHip
		{
			OFFSET 1.92384 -1.64427 0.83032
			CHANNELS 3 Zrotation Yrotation Xrotation
			JOINT LeftKnee
			{
				OFFSET 2.52872 -6.94761 0.00000
				CHANNELS 3 Zrotation Yrotation Xrotation
				JOINT LeftAnkle
				{
					OFFSET 2.51827 -6.91890 0.00000
					CHANNELS 3 Zrotation Yrotation Xrotation
					JOINT LeftToe
					{
						OFFSET 0.22757 -0.62524 2.06528
						CHANNELS 3 Zrotation Yrotation Xrotation
						End Site
						{
							OFFSET 0.00000 -0.00000 1.08218
						}
					}
				}
			}
		}
	}
	JOINT RHipJoint
	{
		OFFSET 0 0 0
		CHANNELS 3 Zrotation Yrotation Xrotation
		JOINT RightHip
		{
			OFFSET -2.09517 -1.64427 0.83032
			CHANNELS 3 Zrotation Yrotation Xrotation
			JOINT RightKnee
			{
				OFFSET -2.55173 -7.01082 0.00000
				CHANNELS 3 Zrotation Yrotation Xrotation
				JOINT RightAnkle
				{
					OFFSET -2.50265 -6.87598 0.00000
					CHANNELS 3 Zrotation Yrotation Xrotation
					JOINT RightToe
					{
						OFFSET -0.22612 -0.62126 1.98677
						CHANNELS 3 Zrotation Yrotation Xrotation
						End Site
						{
							OFFSET -0.00000 -0.00000 1.04433
						}
					}
				}
			}
		}
	}
	JOINT lowerback
	{
		OFFSET 0 0 0
		CHANNELS 3 Zrotation Yrotation Xrotation
		JOINT Chest
		{
			OFFSET 0.02839 1.68926 0.31690
			CHANNELS 3 Zrotation Yrotation Xrotation
			JOINT Chest2
			{
				OFFSET -0.01522 1.70183 0.21192
				CHANNELS 3 Zrotation Yrotation Xrotation
				JOINT lowerneck
				{
					OFFSET 0 0 0
					CHANNELS 3 Zrotation Yrotation Xrotation
					JOINT Neck
					{
						OFFSET -0.04523 1.88988 0.10630
						CHANNELS 3 Zrotation Yrotation Xrotation
						JOINT Head
						{
							OFFSET 0.05172 1.78070 -0.56858
							CHANNELS 3 Zrotation Yrotation Xrotation
							End Site
							{
								OFFSET 0.01532 1.90392 -0.20434
							}
						}
					}
				}
				JOINT LeftCollar
				{
					OFFSET 0 0 0
					CHANNELS 3 Zrotation Yrotation Xrotation
					JOINT LeftShoulder
					{
						OFFSET 3.25522 0.75486 0.22086
CHANNELS 3 Zrotation Xrotation Yrotation
						JOINT LeftElbow
						{
OFFSET 0 -4.856450 0.000000
CHANNELS 3 Zrotation Xrotation Yrotation
							JOINT LeftWrist
							{
OFFSET 0 -2.798740 0.000000
CHANNELS 3 Zrotation Xrotation Yrotation
								JOINT lhand
								{
									OFFSET 0 0 0
CHANNELS 3 Zrotation Xrotation Yrotation
									JOINT LFingers
									{
OFFSET 0 -0.573400 0.000000
CHANNELS 3 Zrotation Xrotation Yrotation
										End Site
										{
OFFSET 0 -0.462290 0.000000
										}
									}
								}
								JOINT LThumb
								{
OFFSET 0 0.000000 0.000000
CHANNELS 3 Zrotation Xrotation Yrotation
									End Site
									{
OFFSET 0 -0.469350 0.469350
									}
								}
							}
						}
					}
				}
				JOINT RightCollar
				{
					OFFSET 0 0 0
					CHANNELS 3 Zrotation Yrotation Xrotation
					JOINT RightShoulder
					{
						OFFSET -3.29079 0.52751 0.36356
CHANNELS 3 Zrotation Xrotation Yrotation
						JOINT RightElbow
						{
OFFSET 0 -4.670180 0.000000
CHANNELS 3 Zrotation Xrotation Yrotation
							JOINT RightWrist
							{
OFFSET 0 -2.655340 0.000000
CHANNELS 3 Zrotation Xrotation Yrotation
								JOINT rhand
								{
									OFFSET 0 0 0
CHANNELS 3 Zrotation Xrotation Yrotation
									JOINT RFingers
									{
OFFSET 0 -0.594070 0.000000
CHANNELS 3 Zrotation Xrotation Yrotation
										End Site
										{
OFFSET 0 -0.478950 0.000000
										}
									}
								}
								JOINT RThumb
								{
OFFSET 0 0.000000 0.000000
CHANNELS 3 Zrotation Xrotation Yrotation
									End Site
									{
OFFSET 0 -0.486270 0.486270
									}
								}
							}
						}
					}
				}
			}
		}
	}
}
MOTION
Frames: 11
Frame Time: 0.008333333333333333
24.272500 16.451400 31.381000 176.573000 8.455400 -143.169000 0.000000 0.000000 0.000000 -14.946000 -26.541600 -54.616300 3.220800 11.044200 32.429200 -0.091200 10.631600 -13.643000 0.176100 -2.703300 -7.453800 0.000000 0.000000 0.000000 11.800600 13.505400 -57.254000 -13.141000 -18.832500 69.562800 0.217200 -10.494100 -10.784100 -0.009700 0.635600 -1.746700 8.534400 7.107100 -8.870600 -20.826600 19.505000 -27.569200 -31.811100 10.020000 -16.281800 7.905500 -2.334300 -9.942600 12.047500 -22.842300 45.386700 -1.194600 -9.210300 21.951800 0.000000 -0.000000 0.000000 68.373800 7.553000 -112.470100 126.123400 -54.444200 90.700100 7.882200 -46.739300 -41.519800 0.000000 0.000000 0.000000 -7.125000 0.000000 0.000000 -39.648600 67.800200 23.114100 0.000000 -0.000000 0.000000 33.236200 45.788400 20.748700 -109.338400 -58.538700 -76.665400 -10.554600 -26.494700 19.549500 0.000000 0.000000 0.000000 7.125000 0.000000 -0.000000 17.341700 49.038500 -1.775700
24.313351 16.346799 30.539047 177.131628 9.066055 -143.253078 0.000000 0.000000 0.000000 -15.984997 -25.852597 -52.960048 4.001256 12.162082 36.307715 0.232639 11.103303 -18.810353 0.184449 -2.766234 -7.628655 0.000000 0.000000 0.000000 8.164277 19.033458 -64.652657 -11.752825 -18.283603 65.202527 -0.261035 -6.167560 -13.852918 -0.216224 2.993079 -8.259498 9.482711 7.634613 -7.890243 -20.445706 19.923973 -27.424941 -32.022528 9.909057 -16.336180 8.482546 -1.835143 -9.300540 11.782333 -22.357019 45.823659 -1.279428 -9.018566 21.913524 0.000000 0.000000 0.000000 68.344389 8.731446 -112.283695 126.335394 -54.370635 90.872502 9.112097 -45.287848 -41.311821 0.000000 0.000000 0.000000 -7.125000 0.000000 0.000000 -38.043396 68.026275 22.258678 0.000000 0.000000 0.000000 33.206048 45.997141 20.371043 -109.991872 -58.434637 -77.222488 -8.506085 -26.362054 21.970713 0.000000 0.000000 0.000000 7.125000 0.000000 0.000000 20.352546 51.023932 -3.133181
24.408516 16.380516 29.630367 177.277978 9.153153 -143.109382 0.000000 0.000000 0.000000 -17.918005 -24.550431 -48.651329 3.776079 11.856041 35.224949 0.522431 10.907535 -21.646112 0.232799 -3.105442 -8.572459 0.000000 0.000000 0.000000 3.062756 23.505356 -68.013951 -6.932953 -15.269887 48.610993 -0.251434 -8.770507 -16.385120 -0.152759 2.508269 -6.913194 10.088763 7.947873 -7.498508 -20.254709 20.212235 -27.352863 -32.091512 9.924778 -16.207831 9.953016 -1.418390 -8.873905 11.104584 -21.940997 46.265005 -1.671596 -8.715567 21.741624 0.000000 0.000000 0.000000 68.224850 8.781170 -112.332562 126.167761 -54.428826 90.736226 9.570596 -45.188009 -40.694483 0.000000 0.000000 0.000000 -7.125000 0.000000 0.000000 -36.547630 67.697299 21.028307 0.000000 0.000000 0.000000 33.390221 46.086237 19.665016 -111.090180 -58.250787 -78.157347 -8.241476 -26.132572 21.817161 0.000000 0.000000 0.000000 7.125000 0.000000 0.000000 20.524824 50.838210 -3.063420
24.569197 16.548928 28.643763 177.177876 8.620430 -143.494628 0.000000 0.000000 0.000000 -20.515656 -22.367260 -40.878585 2.587215 9.994009 28.957994 0.549937 10.573933 -21.575395 0.342063 -3.758059 -10.397100 0.000000 0.000000 0.000000 -9.285814 30.386556 -65.829688 -2.006097 -8.872917 25.402413 0.471687 -16.984707 -19.058924 -0.055798 1.521395 -4.184732 10.659872 8.097936 -7.161317 -20.040574 20.321439 -27.162345 -32.112259 9.887677 -16.014766 9.571307 -1.177421 -9.082650 11.567982 -22.294306 46.688831 -1.588002 -8.840383 22.454819 0.000000 0.000000 0.000000 68.466953 8.081059 -112.942531 126.044846 -54.471232 90.636202 10.173754 -45.033632 -40.760302 0.000000 0.000000 0.000000 -7.125000 0.000000 0.000000 -36.043986 67.929863 20.903733 0.000000 0.000000 0.000000 33.332746 45.910837 19.263658 -112.137858 -58.064704 -79.047356 -8.480709 -25.728932 21.705647 0.000000 0.000000 0.000000 7.125000 0.000000 0.000000 20.245936 50.771513 -2.984820
24.830790 16.511012 27.551385 177.016876 7.884309 -145.284997 0.000000 0.000000 0.000000 -22.428798 -20.330633 -32.983674 2.114186 9.099906 26.108317 0.694888 10.838330 -23.169301 0.490086 -4.488476 -12.455211 0.000000 0.000000 0.000000 -17.143198 36.030075 -63.588803 -1.176557 -6.884022 19.372407 1.141426 -23.467942 -24.350313 -0.042209 1.303135 -3.583702 10.908404 8.159581 -6.063762 -19.601318 20.247268 -26.668884 -31.995679 9.651555 -16.206515 10.077039 -0.994535 -9.080643 11.008397 -21.859255 47.045253 -1.854820 -8.603705 22.472183 0.000000 0.000000 0.000000 68.537090 7.487266 -113.450582 125.798804 -54.555477 90.435868 10.685569 -45.144307 -40.037625 0.000000 0.000000 0.000000 -7.125000 0.000000 0.000000 -34.334320 67.524946 19.501787 0.000000 0.000000 0.000000 32.983317 45.731576 19.665901 -112.614320 -57.976600 -79.451596 -8.420020 -25.731466 22.465742 0.000000 0.000000 0.000000 7.125000 0.000000 0.000000 20.679701 51.474285 -3.420998
25.125024 16.410826 26.388009 180.876803 6.834933 -145.901801 0.000000 0.000000 0.000000 -18.854623 -18.632192 -29.508322 2.788825 10.344464 30.100202 0.778608 12.870146 -25.841552 0.996026 -6.350596 -17.805476 0.000000 0.000000 0.000000 -1.873218 32.884930 -59.923050 -1.749170 -8.322542 23.698377 0.778509 -15.535850 -8.038184 -0.053800 1.496443 -4.115856 15.327836 9.011014 -4.756188 -18.540810 21.724618 -27.285186 -33.281378 9.484078 -16.138517 10.762342 -0.343438 -9.205758 10.072240 -20.423945 47.646133 -2.146037 -7.943912 22.555748 0.000000 0.000000 0.000000 68.172285 9.308365 -113.166225 124.732764 -54.910898 89.565476 10.832509 -44.144155 -40.284869 0.000000 0.000000 0.000000 -7.125000 0.000000 0.000000 -34.567565 67.765122 19.830802 0.000000 0.000000 0.000000 32.046644 46.225607 20.426002 -112.267850 -58.040850 -79.157592 -7.954951 -26.923369 22.534696 0.000000 0.000000 0.000000 7.125000 0.000000 0.000000 21.153998 51.462560 -3.498899
25.495711 16.459562 25.288827 181.929922 6.599237 -146.253995 0.000000 0.000000 0.000000 -17.393241 -14.962725 -33.339767 5.505271 13.926592 42.953456 0.624872 8.030528 -19.948331 2.109260 -9.089984 -26.077294 0.000000 0.000000 0.000000 7.713502 29.262572 -57.251387 -2.520223 -9.874415 28.571173 0.196666 -8.140758 -5.318590 -0.002271 -0.272454 0.748572 15.888100 9.060911 -3.988152 -18.215453 21.839447 -27.222343 -33.500220 9.278913 -16.461237 11.627140 0.180939 -9.514068 9.775892 -19.002278 47.321528 -2.104751 -7.169543 22.089944 0.000000 0.000000 0.000000 67.955718 11.876168 -111.550422 124.643498 -54.939892 89.492367 11.107112 -43.305337 -39.888472 0.000000 0.000000 0.000000 -7.125000 0.000000 0.000000 -33.656343 67.534600 19.088619 0.000000 0.000000 0.000000 32.061629 46.432833 21.160648 -111.755451 -58.133827 -78.722757 -8.316469 -26.873977 22.616567 0.000000 0.000000 0.000000 7.125000 0.000000 0.000000 20.854420 51.598262 -3.517283
25.823766 16.584447 24.271040 182.615536 3.671059 -147.280112 0.000000 0.000000 0.000000 -13.818453 -12.286393 -45.368416 10.951544 17.909427 62.621855 -0.038811 5.082228 2.124272 0.787841 -5.666205 -15.818815 0.000000 0.000000 0.000000 12.697857 27.977455 -51.383974 -2.686895 -10.170046 29.529004 0.003648 -7.494847 -10.605504 -0.001800 -0.274039 0.752998 17.454554 8.997809 -3.814579 -18.066840 21.330070 -26.133098 -33.830922 9.056739 -14.987842 12.080406 0.248820 -9.140873 9.689589 -18.085480 46.681122 -1.782093 -6.751310 21.292705 0.000000 0.000000 0.000000 67.627595 11.873153 -110.171265 124.934092 -54.844950 89.730166 10.168010 -41.900199 -39.029769 0.000000 0.000000 0.000000 -7.125000 0.000000 0.000000 -33.372131 66.564685 18.190710 0.000000 0.000000 0.000000 31.624339 46.076754 21.418822 -113.078385 -57.888599 -79.844805 -8.868382 -26.396978 22.653985 0.000000 0.000000 0.000000 7.125000 0.000000 0.000000 20.349872 51.724542 -3.490592
26.097873 16.654580 23.337972 182.240761 2.801833 -146.705718 0.000000 0.000000 0.000000 -12.631682 -12.420361 -56.814621 13.371288 18.912140 70.274774 -0.570207 13.241396 -4.665720 0.351944 -3.810442 -10.544083 0.000000 0.000000 0.000000 14.542327 27.599117 -48.145856 -2.801254 -10.366028 30.170506 -0.249433 -7.145000 -14.638895 -0.004237 -0.411440 1.130475 15.749947 8.910258 -4.922445 -18.155975 20.887866 -25.921330 -32.419535 9.311572 -14.704518 11.906371 0.368090 -9.031809 9.577743 -17.608381 46.809105 -1.687360 -6.545280 21.311533 0.000000 0.000000 0.000000 67.011958 12.545944 -108.694552 124.889419 -54.859614 89.693650 9.651515 -42.981864 -38.643185 0.000000 0.000000 0.000000 -7.125000 0.000000 0.000000 -33.367443 66.101671 17.840612 0.000000 0.000000 0.000000 28.801134 46.010937 24.627801 -111.197200 -58.232200 -78.248400 -8.472658 -26.388025 23.147727 0.000000 0.000000 0.000000 7.125000 0.000000 0.000000 20.981348 52.120327 -3.816080
26.244323 16.512706 22.407361 181.887311 1.418062 -146.212240 0.000000 0.000000 0.000000 -10.218563 -15.923102 -64.427248 11.404506 18.127169 64.088211 -0.175019 9.625640 -10.085926 0.402389 -4.072436 -11.280675 0.000000 0.000000 0.000000 16.573435 25.719279 -47.568978 -3.728720 -11.790369 34.994493 -0.846318 -5.058052 -19.925881 -0.001094 0.210614 -0.578617 15.577864 8.730472 -6.121369 -18.494694 20.637282 -25.887082 -32.254385 9.507912 -13.978140 12.488370 0.609174 -8.605972 9.044692 -16.616212 46.679249 -1.791541 -6.087898 20.860016 0.000000 0.000000 0.000000 66.328703 13.343352 -107.327233 125.371335 -54.699924 90.087281 8.775247 -41.768514 -39.043807 0.000000 0.000000 0.000000 -7.125000 0.000000 0.000000 -34.851199 66.167999 18.768264 0.000000 0.000000 0.000000 28.271577 45.839530 25.418062 -111.288884 -58.216258 -78.326331 -8.538938 -26.412018 23.478251 0.000000 0.000000 0.000000 7.125000 0.000000 0.000000 21.093591 52.440021 -4.007654
26.320497 16.509641 21.425080 181.647723 0.232650 -146.410197 0.000000 0.000000 0.000000 -7.790230 -19.453449 -65.806418 6.324436 14.730858 46.261730 -0.459188 13.959708 -12.951122 0.385497 -3.986896 -11.039776 0.000000 0.000000 0.000000 18.629027 24.423730 -43.039152 -3.668423 -11.705382 34.697835 -1.188611 -5.252317 -23.109262 -0.004168 0.413825 -1.136976 15.108874 8.627030 -6.747403 -18.623345 20.299721 -25.489088 -31.764103 9.604773 -13.338479 12.617422 0.802037 -9.335708 8.615678 -16.040193 46.876396 -1.930517 -5.736806 21.092118 0.000000 0.000000 0.000000 65.698220 13.292447 -106.003127 125.655801 -54.604061 90.319381 7.873258 -42.302213 -39.608159 0.000000 0.000000 0.000000 -7.125000 0.000000 0.000000 -36.613058 66.346877 19.973806 0.000000 0.000000 0.000000 27.075340 45.355739 26.787112 -110.320284 -58.380763 -77.502196 -8.523510 -26.794208 23.745263 0.000000 0.000000 0.000000 7.125000 0.000000 0.000000 21.252609 52.685993 -4.171967
